<?xml version="1.0" standalone="no"?><!DOCTYPE svg PUBLIC "-//W3C//DTD SVG 1.1//EN" "http://www.w3.org/Graphics/SVG/1.1/DTD/svg11.dtd"><svg t="1576049344828" class="icon" viewBox="0 0 1024 1024" version="1.1" xmlns="http://www.w3.org/2000/svg" p-id="3574" xmlns:xlink="http://www.w3.org/1999/xlink" width="200" height="200"><defs><style type="text/css"></style></defs><path d="M485.8 648.6c-44.8-34.9-20.8-65.7 19.9-105.5S839 209.7 839 209.7 632.7 535.2 586 599.8c-46.7 64.6-54.8 84.1-100.2 48.8z m430.4-43.4c0-72.5-19-140.6-52.3-199.5l-1 0.6c-4.2-10.1-14.2-17.3-25.9-17.3-15.5 0-28 12.5-28 28 0 7.6 3 14.4 7.9 19.5 27.6 50 43.3 107.5 43.3 168.7 0 67.3-19 130.1-51.9 183.5-3.7 4.8-6 10.8-6 17.3 0 15.5 12.6 28.2 28.2 28.2 11.2 0 20.9-6.6 25.4-16.1 38.2-62 60.3-134.9 60.3-212.9zM668.8 232.1l0.3-0.7c-48.8-20.8-102.5-32.3-158.9-32.3-224.2 0-406 181.8-406 406 0 80 23.2 154.7 63.2 217.6l0.2-0.2c5.1 7.2 13.4 12 22.9 12 15.5 0 28-12.5 28-28 0-6.8-2.4-13-6.4-17.8-32.9-53.4-51.9-116.2-51.9-183.5 0-193.3 156.7-350 350-350 47.9 0 93.6 9.7 135.3 27.1 4.5 3 9.8 4.7 15.6 4.7 15.5 0 28-12.5 28-28-0.1-12.8-8.7-23.5-20.3-26.9z" p-id="3575"></path></svg>