<?xml version="1.0" standalone="no"?><!DOCTYPE svg PUBLIC "-//W3C//DTD SVG 1.1//EN" "http://www.w3.org/Graphics/SVG/1.1/DTD/svg11.dtd"><svg t="1576069397505" class="icon" viewBox="0 0 1024 1024" version="1.1" xmlns="http://www.w3.org/2000/svg" p-id="3469" xmlns:xlink="http://www.w3.org/1999/xlink" width="200" height="200"><defs><style type="text/css"></style></defs><path d="M549 849.7l-375.8 0.2-0.1-112.9-0.1-187.6v-75l-0.1-187.6V174.3h676.6l0.2-0.2 0.3 675.6H549zM849.5 99.2H172.8c-41.3 0.1-74.8 33.5-74.8 74.7v675.9c0 41.2 33.6 74.7 74.9 74.7H850c41.3 0 74.8-33.4 74.9-74.6v-676c-0.2-41.4-34-74.8-75.4-74.7z m0 0" p-id="3470"></path><path d="M709.4 286.8h-263c-20.8 0-37.6 16.8-37.6 37.5s16.8 37.5 37.6 37.5h263.1c20.8 0 37.6-16.8 37.6-37.5-0.1-20.7-16.9-37.5-37.7-37.5m0 187.6h-263c-20.8 0-37.6 16.8-37.6 37.5s16.8 37.5 37.6 37.5h263.1c20.8 0 37.6-16.8 37.6-37.5-0.1-20.7-16.9-37.5-37.7-37.5m0 187.6h-263c-20.8 0-37.6 16.8-37.6 37.5s16.8 37.5 37.6 37.5h263.1c20.8 0 37.6-16.8 37.6-37.5-0.1-20.7-16.9-37.5-37.7-37.5M323.5 286.8c-20.8 0-37.6 16.8-37.6 37.5s16.8 37.5 37.6 37.5 37.6-16.8 37.6-37.5-16.8-37.5-37.6-37.5m0 187.6c-20.8 0-37.6 16.8-37.6 37.5s16.8 37.5 37.6 37.5 37.6-16.8 37.6-37.5-16.8-37.5-37.6-37.5m0 187.6c-20.8 0-37.6 16.8-37.6 37.5s16.8 37.5 37.6 37.5 37.6-16.8 37.6-37.5-16.8-37.5-37.6-37.5" p-id="3471"></path></svg>