<?xml version="1.0" standalone="no"?><!DOCTYPE svg PUBLIC "-//W3C//DTD SVG 1.1//EN" "http://www.w3.org/Graphics/SVG/1.1/DTD/svg11.dtd"><svg t="1576652837249" class="icon" viewBox="0 0 1024 1024" version="1.1" xmlns="http://www.w3.org/2000/svg" p-id="3228" xmlns:xlink="http://www.w3.org/1999/xlink" width="200" height="200"><defs><style type="text/css"></style></defs><path d="M512 32C248 32 32 248 32 512s216 480 480 480 480-216 480-480S776 32 512 32z" fill="#FFFFFF" p-id="3229"></path><path d="M512 0C228.8 0 0 228.8 0 512s228.8 512 512 512 512-228.8 512-512S795.2 0 512 0z m0 992C248 992 32 776 32 512S248 32 512 32s480 216 480 480-216 480-480 480z" fill="" p-id="3230"></path><path d="M512 512m-392 0a392 392 0 1 0 784 0 392 392 0 1 0-784 0Z" fill="#9DE8F7" p-id="3231"></path><path d="M784 496H528V240h-32v256H240v32h256v256h32V528h256z" fill="#1A1718" p-id="3232"></path></svg>